<svg xmlns="http://www.w3.org/2000/svg" viewBox="0 0 2000 819.52"><defs><style>.cls-1{fill:#fff;}</style></defs><title>mebelРесурс 8</title><g id="Слой_2" data-name="Слой 2"><g id="version_2_inverse" data-name="version 2 inverse"><g id="icon_копия_" data-name="icon (копия)"><path class="cls-1" d="M1314.47,276.87a64.28,64.28,0,1,0-128.56,0v75.05H814.21V276.87a64.28,64.28,0,0,0-128.56,0c0,51.71,57.91,81.85,100.18,53.33A64.13,64.13,0,0,1,745,351.92c12,27.15,16.39,64.9,17.86,94.79h24a178.57,178.57,0,0,1,7.55,52.52h19.75V446.71h32.32a170,170,0,0,1,3,33.54h19.76V446.71h261.6v33.54h19.76a170.78,170.78,0,0,1,3-33.54h32.32v52.52h19.76a179,179,0,0,1,7.54-52.52h24c1.47-29.89,5.88-67.64,17.87-94.79a64.18,64.18,0,0,1-40.84-21.72C1256.6,358.74,1314.47,328.54,1314.47,276.87ZM1185.91,407.22H814.21V395.54h371.7Z"/><path class="cls-1" d="M1000.06,52.55,800.19,220a75.74,75.74,0,0,1,25.67,56.85v63.4H965.69V247.8h68.75v92.47h139.82v-63.4A75.72,75.72,0,0,1,1199.94,220Zm-7.54,160H965.69V185.76h26.83Zm0-40.3H965.69V145.46h26.83Zm41.92,40.3H1007.6V185.76h26.84Zm0-40.3H1007.6V145.46h26.84Z"/><path class="cls-1" d="M1000.06,0,772.31,204.31h0a75.83,75.83,0,0,1,16.43,7.33L1000.06,27.73l211.32,183.91a75.83,75.83,0,0,1,16.43-7.33h0Z"/></g><g id="title_копия_" data-name="title (копия)"><path class="cls-1" d="M0,523.5v160H153.77v-160Zm123.23,136H108.55V568.21A37.85,37.85,0,0,0,94.7,579.12a47.67,47.67,0,0,0-7.41,14.72A67,67,0,0,0,84.4,610q-.45,8.13-.44,20.29H69.36a261.79,261.79,0,0,0-1.19-26.88,52,52,0,0,0-6.37-19.89q-5.26-9.48-16.67-15v91H30.24V547q7,0,17,4.83A73.33,73.33,0,0,1,65,564.33q8.26,7.75,11.6,15.89,5.7-12.75,20.59-23T123.23,547Z"/><path class="cls-1" d="M1250.36,523V683h153.76V523Zm123.22,136h-14.67V567.71a37.81,37.81,0,0,0-13.86,10.91,47.43,47.43,0,0,0-7.4,14.72,66.48,66.48,0,0,0-2.89,16.19q-.45,8.13-.45,20.29h-14.6a262.09,262.09,0,0,0-1.18-26.88,52.13,52.13,0,0,0-6.37-19.89q-5.27-9.48-16.67-15v91h-14.9V546.54q7,0,17,4.83a73.53,73.53,0,0,1,17.75,12.46q8.25,7.75,11.59,15.89,5.71-12.75,20.6-23t26.08-10.22Z"/><path class="cls-1" d="M1511.48,615.31v-39a138,138,0,0,0-28.37,39ZM1424.34,523V683H1556.9V523Zm102,136h-14.9V629.82h-34.6a124.2,124.2,0,0,0-4.59,14.64,135.78,135.78,0,0,0-2.82,14.58h-14.89q3.93-31.86,22.45-62.55a147.16,147.16,0,0,1,49.35-50Z"/><path class="cls-1" d="M1577.61,523V683h132.05V523Zm125.08,88.07h-23v48h-14.89v-48h-42v48h-14.89V546.54h14.89v50h42v-50h14.89v50h23Z"/><path class="cls-1" d="M317.64,523V683H437V523Zm69.22,127.7Q372,659,348.33,659V546.54H390v11.28H363.22V579.5a42.79,42.79,0,0,1,29.66,11.3,36.25,36.25,0,0,1,12.5,28Q405.38,640.39,386.86,650.7ZM382.24,601a28.08,28.08,0,0,0-19-7v50.68a26.94,26.94,0,0,0,18.95-7.61,24.14,24.14,0,0,0,8.17-18.31A22.49,22.49,0,0,0,382.24,601Z"/><path class="cls-1" d="M174,523V683h123.2V523Zm92.34,35.31a46.31,46.31,0,0,0-21.19,5,52.12,52.12,0,0,0-9,6,49.18,49.18,0,0,0-7.49,7.65,44.7,44.7,0,0,0-8.3,19.56h45.94v14.64H220.41a44.42,44.42,0,0,0,15.75,27.36,45.28,45.28,0,0,0,30.19,11.1v14.79a64.46,64.46,0,0,1-10.78-.88,54.72,54.72,0,0,1-10-2.67,60.56,60.56,0,0,1-9.63-4.65,64.62,64.62,0,0,1-12.45-9.45A60.21,60.21,0,0,1,213.6,634a58.23,58.23,0,0,1-8.23-30.18A60.47,60.47,0,0,1,223.23,561a65.22,65.22,0,0,1,12.67-9.74,59.16,59.16,0,0,1,30.45-8.06Z"/><path class="cls-1" d="M457.26,523V683h123.2V523Zm92.35,35.31a46.31,46.31,0,0,0-21.19,5,52.59,52.59,0,0,0-9,6,49.11,49.11,0,0,0-7.48,7.65,44.59,44.59,0,0,0-8.3,19.56h45.94v14.64H503.67a44.42,44.42,0,0,0,15.75,27.36,45.26,45.26,0,0,0,30.19,11.1v14.79a64.46,64.46,0,0,1-10.78-.88,54.72,54.72,0,0,1-10-2.67,60.56,60.56,0,0,1-9.63-4.65,64,64,0,0,1-12.45-9.45A60.25,60.25,0,0,1,496.85,634a58.31,58.31,0,0,1-8.22-30.18A60.35,60.35,0,0,1,506.49,561a64.92,64.92,0,0,1,12.67-9.74,59.16,59.16,0,0,1,30.45-8.06Z"/><path class="cls-1" d="M1729.9,523V683h123.2V523Zm92.35,35.31a46.31,46.31,0,0,0-21.19,5,52.59,52.59,0,0,0-9,6,49.11,49.11,0,0,0-7.48,7.65,44.59,44.59,0,0,0-8.3,19.56h45.94v14.64h-45.94a44.45,44.45,0,0,0,15.74,27.36,45.3,45.3,0,0,0,30.2,11.1v14.79a64.37,64.37,0,0,1-10.78-.88,54.51,54.51,0,0,1-10-2.67,61.07,61.07,0,0,1-9.64-4.65,64.24,64.24,0,0,1-12.44-9.45,60.25,60.25,0,0,1-9.86-12.74,58.31,58.31,0,0,1-8.22-30.18A60.42,60.42,0,0,1,1779.12,561a65.52,65.52,0,0,1,12.67-9.74,59.17,59.17,0,0,1,30.46-8.06Z"/><path class="cls-1" d="M1873.55,523V683H2000V523Zm95.62,48.27q-12.75-10.39-24.9-13V660h-14.89V558.31a51,51,0,0,0-12.9,4.54,58.47,58.47,0,0,0-12.29,8.42l-5.34-14.87q17.64-13.18,38-13.18a64.93,64.93,0,0,1,20.64,3.44,52.24,52.24,0,0,1,17.34,9.74Z"/><path class="cls-1" d="M600.92,523V683H734.44V523ZM704.21,659.89H689.47V576.62a17.16,17.16,0,0,0-5.67-12.82,18.46,18.46,0,0,0-13.15-5.42,19,19,0,0,0-13.3,5.42,17,17,0,0,0-5.82,12.82v54.56q0,14.66-9.52,23.7t-23.89,9V650.15q8.67,0,13.89-5.2t5.22-13.77V576.62q0-13.18,9.89-23a32.33,32.33,0,0,1,23.53-9.78,32.78,32.78,0,0,1,23.53,9.7q10,9.7,10,23Z"/><path class="cls-1" d="M754.62,523V683H891.25V523ZM860.85,660H846V569q-6.37,1.9-14.53,8.28a90,90,0,0,0-15.34,14.94,82,82,0,0,0-6.7,9.52,84.51,84.51,0,0,0-5.3,10.33,56.85,56.85,0,0,0-4.52,21.9V660H785V547.54h14.59v41.82q9.34-15,25.64-27a80.45,80.45,0,0,1,35.64-14.87Z"/><path class="cls-1" d="M975.72,556.92q-8.52,0-13.82,5.34A18.76,18.76,0,0,0,956.6,576v70.39h38.31V576q0-8.56-5.23-13.84T975.72,556.92ZM911.92,523V683h128V523Zm106,137H935V646.42h6.74V576q0-14.21,9.82-23.62T975.72,543q14.6,0,24.34,9.41T1009.8,576v70.39h8.08Z"/><path class="cls-1" d="M1177.7,571.32a47.71,47.71,0,0,0-14.89-10.09,49,49,0,0,0-17.93-3.44,46.43,46.43,0,0,0-23.19,6.15,47.15,47.15,0,0,0-17,17,44.31,44.31,0,0,0,0,45.78,46.5,46.5,0,0,0,80.39,0,44.76,44.76,0,0,0,6.08-22.89,46.16,46.16,0,0,0-3.48-17.84A44.93,44.93,0,0,0,1177.7,571.32ZM1060.63,523V683h169.52V523Zm137.08,111.11a63.38,63.38,0,0,1-22.3,22.08,59,59,0,0,1-30.53,8.17,64.37,64.37,0,0,1-10.78-.88,54.72,54.72,0,0,1-10-2.67,60.56,60.56,0,0,1-9.63-4.65,64,64,0,0,1-12.45-9.45,60.25,60.25,0,0,1-9.86-12.74,58.31,58.31,0,0,1-8.22-30.18A60.35,60.35,0,0,1,1101.76,561a64.92,64.92,0,0,1,12.67-9.74,59.11,59.11,0,0,1,30.45-8.06,60.11,60.11,0,0,1,30.53,8.06,64.28,64.28,0,0,1,22.3,22.19,60,60,0,0,1,0,60.64Z"/></g><g id="slogan_копия_" data-name="slogan (копия)"><path class="cls-1" d="M425.52,751.26l-3.87-10.91q12.78-9.66,27.53-9.67a46.58,46.58,0,0,1,15,2.53,37.75,37.75,0,0,1,12.57,7.14l-4.09,10.91q-9.24-7.63-18-9.51v74.6h-10.8v-74.6a36.75,36.75,0,0,0-9.34,3.33A42.42,42.42,0,0,0,425.52,751.26Z"/><path class="cls-1" d="M526.93,730.68a43.17,43.17,0,0,1,22.12,5.91,46.85,46.85,0,0,1,16.17,16.28,44.46,44.46,0,0,1,0,44.47,46.17,46.17,0,0,1-16.17,16.19,42.31,42.31,0,0,1-22.12,6,46.54,46.54,0,0,1-7.82-.64,40,40,0,0,1-7.28-2,44,44,0,0,1-7-3.41,46.29,46.29,0,0,1-9-6.93,44.18,44.18,0,0,1-7.15-9.35,43.14,43.14,0,0,1-6-22.13,44.09,44.09,0,0,1,6-22.23,43.3,43.3,0,0,1,7-9.13,47.47,47.47,0,0,1,9.18-7.15A42.56,42.56,0,0,1,526.93,730.68Zm0,10.64a33.36,33.36,0,0,0-16.82,4.51,34.45,34.45,0,0,0-12.3,12.46,33,33,0,0,0,0,33.63,33.2,33.2,0,0,0,12.3,12.35,32.42,32.42,0,0,0,16.82,4.62,33.59,33.59,0,0,0,29.16-17,33.22,33.22,0,0,0,4.41-16.82A34.34,34.34,0,0,0,558,762a32.78,32.78,0,0,0-7.25-10.74,34.48,34.48,0,0,0-10.8-7.42A35.14,35.14,0,0,0,526.93,741.32Z"/><path class="cls-1" d="M577.9,773.55q0-15.9,8.48-26.48,8.39-10.37,25.09-13.22v10.8a35,35,0,0,0-10.75,3.41,20.56,20.56,0,0,0-7,5.94q-7.31,6-5.26,62.35H577.9Z"/><path class="cls-1" d="M623.39,806.36h4.89V754.75a23.1,23.1,0,0,1,7.12-17.32,25.84,25.84,0,0,1,35.18,0,23.23,23.23,0,0,1,7.06,17.32v51.61h5.85v10h-60.1Zm15.68,0h27.77V754.75a13.88,13.88,0,0,0-3.78-10.15,15,15,0,0,0-20.15,0,13.82,13.82,0,0,0-3.84,10.1Z"/><path class="cls-1" d="M742,733.85v82.5H731.19V794.92H706.11a90.94,90.94,0,0,0-3.33,10.75,101.55,101.55,0,0,0-2,10.68H689.94q2.85-23.36,16.27-45.87A107.47,107.47,0,0,1,742,733.85Zm-31.36,50.44h20.57V755.71A101.06,101.06,0,0,0,710.62,784.29Z"/><path class="cls-1" d="M849,749.38a27.42,27.42,0,0,0-10.05,8,35.06,35.06,0,0,0-5.37,10.79A49.35,49.35,0,0,0,831.47,780q-.33,6-.33,14.88H820.56a192.28,192.28,0,0,0-.86-19.71,38.26,38.26,0,0,0-4.62-14.58,26.69,26.69,0,0,0-12.08-11v66.76H792.2v-82.5q5.06,0,12.3,3.55a52.85,52.85,0,0,1,12.87,9.13,34.11,34.11,0,0,1,8.4,11.65q4.14-9.34,14.94-16.83t18.9-7.5v82.5H849Z"/><path class="cls-1" d="M880.88,758a30.83,30.83,0,0,1,21.5,8.29,26.72,26.72,0,0,1,9.06,20.53q0,15.82-13.43,23.4-10.78,6.12-27.93,6.11v-82.5h10.8Zm0,10.64v37.17a19.42,19.42,0,0,0,13.73-5.59,17.8,17.8,0,0,0,5.93-13.43,16.58,16.58,0,0,0-5.87-13A20.27,20.27,0,0,0,880.88,768.66Zm37.81-34.81h10.8v82.5h-10.8Z"/><path class="cls-1" d="M981.32,733.85q13.15,0,21.65,3.28t12.56,8.92a22.42,22.42,0,0,1,4.09,13.32,16.15,16.15,0,0,1-5.21,11.87,19.41,19.41,0,0,1,6,7.84,30.38,30.38,0,0,1,2.2,11.76,25.17,25.17,0,0,1-6.93,17.62,23.88,23.88,0,0,1-17.4,7.68q-8.06.21-16.92.21Zm10.8,11.23v60.69q9.72,0,14.71-4a13.09,13.09,0,0,0,5.16-10.9q0-12.24-13.75-18.05,10.57-4.93,10.58-13.42,0-4.95-4.19-9.46Q1000.45,745.56,992.12,745.08Z"/><path class="cls-1" d="M1039.54,780.47a34,34,0,0,0,33.3,28.2v10.85a46.42,46.42,0,0,1-7.81-.64,39.82,39.82,0,0,1-7.28-2,44,44,0,0,1-7-3.41,46.29,46.29,0,0,1-9-6.93,44.18,44.18,0,0,1-7.15-9.35,43.14,43.14,0,0,1-6-22.13,44.09,44.09,0,0,1,6-22.23,43.59,43.59,0,0,1,7-9.13,47.54,47.54,0,0,1,9.19-7.15,42.55,42.55,0,0,1,22.07-5.91v11.07a33.33,33.33,0,0,0-15.36,3.65,38.18,38.18,0,0,0-6.5,4.38,35.43,35.43,0,0,0-5.42,5.61,32.94,32.94,0,0,0-6,14.34h33.3v10.74Z"/><path class="cls-1" d="M1080.69,795.89h10.36a12.45,12.45,0,0,0,4.33,9.75,15,15,0,0,0,10.28,3.84,14.76,14.76,0,0,0,11.23-4.81,16.26,16.26,0,0,0,4.51-11.52q0-17.83-19.66-21.91,7.58-2.75,11-5.8a14.08,14.08,0,0,0,4.72-11.07,12.85,12.85,0,0,0-3.43-9,11.14,11.14,0,0,0-8.54-3.76,12.48,12.48,0,0,0-8.19,3,10.42,10.42,0,0,0-3.9,7.62h-9.72a22.62,22.62,0,0,1,6.9-14.9,21.11,21.11,0,0,1,15.12-5.72,21.43,21.43,0,0,1,15.87,6.69,22.08,22.08,0,0,1,6.58,16.08,21.22,21.22,0,0,1-7.62,16.76q11.54,7.57,11.54,22a26.28,26.28,0,0,1-43.88,19.6A21.8,21.8,0,0,1,1080.69,795.89Z"/><path class="cls-1" d="M1147.66,780.47a34,34,0,0,0,33.3,28.2v10.85a46.42,46.42,0,0,1-7.81-.64,39.82,39.82,0,0,1-7.28-2,44,44,0,0,1-7-3.41,46.29,46.29,0,0,1-9-6.93,44.18,44.18,0,0,1-7.15-9.35,43.14,43.14,0,0,1-6-22.13,44.09,44.09,0,0,1,6-22.23,43.59,43.59,0,0,1,7-9.13,47.54,47.54,0,0,1,9.19-7.15,42.55,42.55,0,0,1,22.07-5.91v11.07a33.33,33.33,0,0,0-15.36,3.65,38.18,38.18,0,0,0-6.5,4.38,35.43,35.43,0,0,0-5.42,5.61,32.94,32.94,0,0,0-6,14.34H1181v10.74Z"/><path class="cls-1" d="M1244.13,749.38a27.42,27.42,0,0,0-10.05,8,35.06,35.06,0,0,0-5.37,10.79,49.35,49.35,0,0,0-2.09,11.87q-.33,6-.32,14.88h-10.59a195.49,195.49,0,0,0-.85-19.71,38.61,38.61,0,0,0-4.62-14.58,26.72,26.72,0,0,0-12.09-11v66.76h-10.79v-82.5q5,0,12.3,3.55a53,53,0,0,1,12.86,9.13,34.11,34.11,0,0,1,8.4,11.65q4.14-9.34,14.94-16.83t18.9-7.5v82.5h-10.63Z"/><path class="cls-1" d="M1315.29,769.52q5.32-.85,12.09-5.75A42.28,42.28,0,0,0,1338.71,751a41,41,0,0,0,5.7-17.14H1355a58,58,0,0,1-1.72,10.18,42.67,42.67,0,0,1-3.44,8.94,58.06,58.06,0,0,1-5,8.17,48.15,48.15,0,0,1-5.77,6.5,53.43,53.43,0,0,1-13.33,9,47.29,47.29,0,0,0,11.45,21,46.75,46.75,0,0,0,8.54,7.12,33.87,33.87,0,0,0,9.29,4.11v10.63q-4.24-1.34-7.71-2.79a59.48,59.48,0,0,1-6.55-3.22,48.49,48.49,0,0,1-5.78-3.87,45.93,45.93,0,0,1-12.3-14.39,85.86,85.86,0,0,1-7.36-19.5v40.6H1304.5v-82.5h10.79Z"/><path class="cls-1" d="M1405.69,733.85q13.15,0,21.65,3.28t12.56,8.92a22.42,22.42,0,0,1,4.09,13.32,16.15,16.15,0,0,1-5.21,11.87,19.41,19.41,0,0,1,6,7.84,30.38,30.38,0,0,1,2.2,11.76,25.17,25.17,0,0,1-6.93,17.62,23.88,23.88,0,0,1-17.4,7.68q-8.05.21-16.92.21Zm10.8,11.23v60.69q9.72,0,14.71-4a13.09,13.09,0,0,0,5.16-10.9q0-12.24-13.75-18.05,10.58-4.93,10.58-13.42,0-4.95-4.19-9.46Q1424.82,745.56,1416.49,745.08Z"/><path class="cls-1" d="M1505.06,733.85v82.5h-10.8V794.92h-25.08a90.94,90.94,0,0,0-3.33,10.75,99,99,0,0,0-2,10.68H1453q2.85-23.36,16.27-45.87A107.41,107.41,0,0,1,1505.06,733.85Zm-31.37,50.44h20.57V755.71A101.25,101.25,0,0,0,1473.69,784.29Z"/><path class="cls-1" d="M1568.06,749.38a27.42,27.42,0,0,0-10,8,35.06,35.06,0,0,0-5.37,10.79,49.35,49.35,0,0,0-2.09,11.87q-.33,6-.32,14.88h-10.58a195.19,195.19,0,0,0-.86-19.71,38.61,38.61,0,0,0-4.62-14.58,26.72,26.72,0,0,0-12.09-11v66.76h-10.79v-82.5q5,0,12.3,3.55a53,53,0,0,1,12.86,9.13,34.29,34.29,0,0,1,8.41,11.65q4.13-9.34,14.93-16.83t18.9-7.5v82.5h-10.63Z"/></g><g id="lines_копия_" data-name="lines (копия)"><rect class="cls-1" x="1629" y="771" width="371" height="10"/><rect class="cls-1" y="770.5" width="375" height="10"/></g></g></g></svg>